<svg width="80" height="80" viewBox="0 0 80 80" fill="none" xmlns="http://www.w3.org/2000/svg">
<path d="M63.3301 19.9933C51.8634 19.9933 42.7501 8.10999 42.6601 7.98999C41.4001 6.32332 38.5934 6.32332 37.3334 7.98999C37.2434 8.11332 28.1301 19.9933 16.6634 19.9933C14.8201 19.9933 13.3301 21.4867 13.3301 23.3267V46.66C13.3301 59.35 35.8734 71.5933 38.4401 72.9433C38.9301 73.1967 39.4634 73.3267 39.9967 73.3267C40.5301 73.3267 41.0634 73.1967 41.5534 72.9433C44.1234 71.5933 66.6634 59.35 66.6634 46.66V23.3267C66.6634 21.4833 65.1734 19.9933 63.3301 19.9933ZM39.9967 53.3267C39.9967 53.3267 29.9967 43.3267 29.9967 38.3267C29.9967 35.5667 32.2367 33.3267 34.9967 33.3267C37.7567 33.3267 39.9967 35.5667 39.9967 38.3267C39.9967 35.5667 42.2367 33.3267 44.9967 33.3267C47.7567 33.3267 49.9967 35.5667 49.9967 38.3267C49.9967 43.3267 39.9967 53.3267 39.9967 53.3267Z" fill="#5865F2"/>
</svg>
