<svg width="80" height="80" viewBox="0 0 80 80" fill="none" xmlns="http://www.w3.org/2000/svg">
<g clip-path="url(#clip0_3_18)">
<path fill-rule="evenodd" clip-rule="evenodd" d="M57.6435 32.3601C58.2935 33.0134 59.1468 33.3334 60.0002 33.3334C60.8535 33.3334 61.7068 33.0134 62.3568 32.3601L69.0235 25.6934C70.3269 24.3901 70.3269 22.2801 69.0235 20.9801L49.0235 0.980068C47.7202 -0.316598 45.6135 -0.316598 44.3102 0.980068L37.6435 7.64674C36.3402 8.94674 36.3402 11.0601 37.6435 12.3601L57.6435 32.3601ZM20.9772 24.3101C22.2805 23.0134 24.3872 23.0134 25.6905 24.3101L45.6905 44.3101C46.9938 45.6134 46.9938 47.7234 45.6905 49.0268L39.0238 55.6934C38.3738 56.3468 37.5205 56.6668 36.6672 56.6668C35.8138 56.6668 34.9605 56.3468 34.3105 55.6934L14.3105 35.6934C13.0072 34.3901 13.0072 32.2768 14.3105 30.9768L20.9772 24.3101ZM26.6667 63.3333C28.51 63.3333 30 64.8266 30 66.6666V73.3333H33.3333V80H0V73.3333H3.33333V66.6666C3.33333 64.8266 4.82333 63.3333 6.66667 63.3333H26.6667ZM52.9075 34.8634L79.0242 60.9767L74.3108 65.6934L48.1942 39.5767C47.7142 39.83 47.2008 40 46.6675 40C45.8142 40 44.9608 39.68 44.3108 39.0267L30.9775 25.6934C29.6742 24.3934 29.6742 22.28 30.9775 20.98L34.3108 17.6467C35.6142 16.35 37.7208 16.35 39.0242 17.6467L52.3575 30.98C53.4142 32.0367 53.5675 33.6134 52.9075 34.8634Z" fill="#5865F2"/>
</g>
<defs>
<clipPath id="clip0_3_18">
<rect width="80" height="80" fill="white"/>
</clipPath>
</defs>
</svg>
